# xmcd
#
# Track frame offsets: 
#        150
#        13100
#        36359
#        67926
#        93794
#        107983
#        131435
#        149970
#        181154
#        199107
#
# Disc length: 3054 seconds
#
# Revision: 2
# Processed by: cddbd v1.5.1PL0 Copyright (c) Steve Scherf et al.
# Submitted via: ExactAudioCopy v0.95a5
#
DISCID=8d0bec0a
DTITLE=Smog - A River Ain't Too Much To Love
DYEAR=2005
DGENRE=Indie
TTITLE0=Palimpsest
TTITLE1=Say Valley Maker
TTITLE2=The Well
TTITLE3=Rock Bottom Riser
TTITLE4=I Feel Like The Mother Of The World
TTITLE5=In The Pines
TTITLE6=Drinking At The Dam
TTITLE7=Running The Loping
TTITLE8=I'm New Here
TTITLE9=Let Me See The Colts
EXTD=
EXTT0=
EXTT1=
EXTT2=
EXTT3=
EXTT4=
EXTT5=
EXTT6=
EXTT7=
EXTT8=
EXTT9=
PLAYORDER=
